<?xml version="1.0" encoding="UTF-8"?>
<svg xmlns="http://www.w3.org/2000/svg" xmlns:xlink="http://www.w3.org/1999/xlink" width="755.9pt" height="325.1pt" viewBox="0 0 755.9 325.1" version="1.1">
<defs>
<clipPath id="clip1">
  <path d="M 0 220 L 755.898438 220 L 755.898438 289 L 0 289 Z M 0 220 "/>
</clipPath>
</defs>
<g id="surface1">
<path style=" stroke:none;fill-rule:evenodd;fill:rgb(0%,0%,0%);fill-opacity:1;" d="M 368.4375 90.984375 L 329.652344 -0.00390625 L 368.4375 36.648438 L 407.21875 -0.00390625 L 368.4375 90.984375 L 459.421875 129.765625 L 422.773438 90.984375 L 459.421875 52.203125 L 368.4375 90.984375 L 277.449219 129.765625 L 314.101563 90.984375 L 277.449219 52.203125 L 368.4375 90.984375 L 329.652344 181.96875 L 368.4375 145.320313 L 407.21875 181.96875 Z M 368.4375 90.984375 "/>
<g clip-path="url(#clip1)" clip-rule="nonzero">
<path style=" stroke:none;fill-rule:evenodd;fill:rgb(0%,0%,0%);fill-opacity:1;" d="M 147.660156 237.1875 L 178.53125 237.335938 L 178.53125 246.121094 L 147.660156 245.972656 Z M 164.382813 286.996094 C 160.371094 286.960938 157.433594 285.890625 155.566406 283.671875 C 153.703125 281.460938 152.777344 278.195313 152.777344 273.859375 L 152.777344 222.761719 L 162.527344 222.761719 L 162.527344 273.957031 C 162.527344 275.164063 162.746094 276.097656 163.226563 276.746094 C 163.710938 277.398438 164.414063 277.714844 165.328125 277.722656 L 178.53125 277.84375 L 178.53125 287.117188 Z M 128.289063 237.164063 L 138.019531 237.164063 L 138.019531 286.730469 L 128.289063 286.730469 Z M 128.289063 220.792969 L 138.019531 220.792969 L 138.019531 230.542969 L 128.289063 230.542969 Z M 96.136719 287.71875 C 93.203125 287.71875 90.464844 287.421875 87.90625 286.855469 C 85.332031 286.28125 82.933594 285.421875 80.71875 284.28125 L 80.605469 284.222656 L 80.605469 273.082031 C 83.183594 275.015625 85.753906 276.464844 88.3125 277.449219 C 90.957031 278.46875 93.558594 278.984375 96.136719 278.984375 C 99.980469 278.984375 102.882813 278.378906 104.804688 277.1875 C 106.730469 276 107.691406 274.207031 107.691406 271.8125 C 107.691406 270.230469 107.164063 269.03125 106.109375 268.242188 C 105.058594 267.453125 103.765625 266.898438 102.199219 266.628906 C 100.636719 266.359375 98.449219 266.105469 95.613281 265.894531 C 95.355469 265.875 95.09375 265.894531 94.796875 265.878906 C 94.503906 265.863281 94.246094 265.816406 93.984375 265.796875 C 93.855469 265.785156 93.738281 265.796875 93.609375 265.78125 C 93.480469 265.765625 93.347656 265.757813 93.21875 265.746094 C 90.007813 265.511719 87.285156 265.03125 85.054688 264.347656 C 82.835938 263.664063 80.976563 262.375 79.496094 260.5 C 78.011719 258.625 77.277344 255.9375 77.277344 252.433594 C 77.277344 248.929688 78.003906 246.015625 79.429688 243.695313 C 80.855469 241.371094 82.984375 239.621094 85.820313 238.464844 C 88.652344 237.308594 92.207031 236.71875 96.476563 236.71875 C 100.996094 236.71875 109.363281 238.429688 114.496094 239.988281 L 114.492188 250.535156 C 111.40625 248.546875 105.578125 245.875 96.476563 245.457031 C 93.15625 245.300781 90.667969 246.023438 89.011719 247.152344 C 87.363281 248.273438 86.535156 249.972656 86.535156 252.234375 C 86.535156 253.574219 87.011719 254.578125 87.953125 255.25 C 88.886719 255.914063 90.070313 256.367188 91.507813 256.589844 C 92.941406 256.808594 94.980469 256.976563 97.617188 257.160156 C 97.816406 257.171875 98.007813 257.207031 98.207031 257.207031 C 98.414063 257.207031 98.628906 257.234375 98.855469 257.257813 C 98.953125 257.265625 99.054688 257.257813 99.152344 257.257813 C 99.234375 257.257813 99.324219 257.296875 99.429688 257.304688 C 102.898438 257.542969 105.851563 257.988281 108.289063 258.691406 C 110.722656 259.390625 112.769531 260.78125 114.421875 262.847656 C 116.078125 264.921875 116.898438 267.898438 116.898438 271.8125 C 116.898438 275.378906 116.152344 278.332031 114.617188 280.675781 C 113.089844 283.011719 110.789063 284.773438 107.703125 285.957031 C 104.644531 287.136719 100.78125 287.71875 96.136719 287.71875 Z M 56.691406 236.925781 L 66.417969 236.925781 L 66.417969 286.488281 L 56.691406 286.488281 Z M 56.691406 220.554688 L 66.417969 220.554688 L 66.417969 230.300781 L 56.691406 230.300781 Z M 37.8125 237.085938 L 48.957031 237.085938 L 28.539063 286.648438 L 20.488281 286.648438 L 0.09375 237.085938 L 11.238281 237.085938 L 24.527344 272.46875 Z M 555.796875 274.800781 L 567.835938 274.800781 L 567.835938 286.835938 L 555.796875 286.835938 Z M 583.160156 261.273438 C 583.160156 237.550781 601.148438 228.828125 621.996094 238.183594 L 621.996094 249.976563 C 613.8125 241.132813 592.90625 241.421875 592.90625 261.183594 C 592.90625 281.9375 613.964844 282.230469 621.996094 272.824219 L 621.996094 284.957031 C 600.371094 294.488281 583.160156 285.257813 583.160156 261.273438 Z M 650.300781 287.796875 C 645.578125 287.796875 641.558594 286.957031 638.203125 285.269531 C 634.859375 283.585938 632.296875 281.109375 630.539063 277.886719 C 628.777344 274.65625 627.894531 270.765625 627.894531 266.21875 L 627.894531 258.148438 C 627.894531 253.652344 628.777344 249.808594 630.539063 246.609375 C 632.296875 243.421875 634.863281 240.972656 638.203125 239.308594 C 641.566406 237.632813 645.578125 236.796875 650.300781 236.796875 C 654.996094 236.796875 659.039063 237.632813 662.398438 239.308594 C 665.738281 240.972656 668.304688 243.414063 670.0625 246.609375 C 671.820313 249.800781 672.703125 253.652344 672.703125 258.148438 L 672.703125 266.347656 C 672.703125 270.878906 671.820313 274.746094 670.0625 277.9375 C 668.304688 281.132813 665.746094 283.585938 662.398438 285.269531 C 659.046875 286.957031 654.996094 287.796875 650.300781 287.796875 Z M 650.300781 278.539063 C 654.035156 278.539063 656.914063 277.46875 658.96875 275.328125 C 661.007813 273.199219 662.023438 270.210938 662.023438 266.347656 L 662.023438 258.148438 C 662.023438 254.285156 661.007813 251.316406 658.96875 249.21875 C 656.914063 247.113281 654.035156 246.054688 650.300781 246.054688 C 646.566406 246.054688 643.671875 247.117188 641.636719 249.21875 C 639.597656 251.320313 638.578125 254.289063 638.578125 258.148438 L 638.578125 266.347656 C 638.578125 270.210938 639.597656 273.195313 641.636719 275.328125 C 643.671875 277.464844 646.566406 278.539063 650.300781 278.539063 Z M 716.074219 256.800781 C 716.074219 253.296875 715.203125 250.585938 713.464844 248.683594 C 711.714844 246.773438 709.246094 245.8125 706.054688 245.8125 C 702.8125 245.8125 700.328125 246.660156 698.5625 248.355469 C 696.808594 250.035156 695.914063 252.414063 695.914063 255.460938 L 695.914063 286.835938 L 686.039063 286.835938 L 686.039063 237.273438 L 695.914063 237.273438 L 695.914063 244.199219 C 697.304688 242.050781 698.996094 240.277344 700.992188 238.984375 C 703.488281 237.371094 706.253906 236.554688 709.296875 236.554688 C 712.816406 236.554688 715.828125 237.339844 718.308594 238.917969 C 721.117188 240.710938 723.023438 243.328125 724.226563 246.371094 C 725.761719 243.414063 727.839844 240.933594 730.246094 239.261719 C 732.847656 237.460938 735.722656 236.554688 738.847656 236.554688 C 742.46875 236.554688 745.5625 237.339844 748.121094 238.917969 C 750.6875 240.5 752.660156 242.796875 753.996094 245.8125 C 755.339844 248.84375 755.996094 252.496094 755.996094 256.75 L 755.996094 286.835938 L 746.121094 286.835938 L 746.121094 256.800781 C 746.121094 253.296875 745.203125 250.585938 743.363281 248.683594 C 741.515625 246.773438 738.929688 245.8125 735.605469 245.8125 C 732.53125 245.8125 730.15625 246.734375 728.480469 248.585938 C 726.617188 250.636719 725.964844 254.066406 725.964844 256.75 L 725.964844 286.835938 L 716.074219 286.835938 Z M 716.074219 256.800781 "/>
</g>
<path style=" stroke:none;fill-rule:evenodd;fill:rgb(72.459412%,14.892578%,17.259216%);fill-opacity:1;" d="M 191.921875 293.257813 C 195.335938 264.421875 199.863281 237.746094 208.011719 215.59375 C 209.945313 210.339844 213.300781 202.066406 220.492188 215.59375 C 229.480469 232.496094 235.703125 250.730469 243.316406 268.300781 C 254.425781 249.144531 265.078125 229.71875 276.644531 210.832031 C 282.691406 200.960938 287.621094 200.125 289.945313 215.265625 C 293.621094 239.257813 295.46875 263.3125 296.183594 287.34375 C 296.398438 294.492188 285.519531 294.644531 284.691406 277.988281 C 283.84375 260.949219 282.96875 244.644531 279.601563 229.386719 C 269.441406 248.136719 258.171875 266.152344 245.777344 283.40625 C 239.648438 291.9375 237.445313 286.5 236.089844 282.914063 C 229.550781 265.601563 223.488281 248.257813 215.238281 233.65625 C 210.039063 255.765625 205.203125 277.964844 199.640625 299.988281 C 193.308594 325.046875 190.914063 301.792969 191.921875 293.257813 Z M 435.300781 277.792969 C 437.941406 262.039063 437.476563 245.597656 439.265625 229.207031 C 439.355469 228.382813 439.445313 227.582031 439.554688 226.804688 C 437.796875 226.847656 436.121094 226.875 434.539063 226.882813 C 429.46875 226.917969 425.351563 226.71875 421.074219 223.984375 C 415.585938 220.476563 418.96875 215.492188 424.5625 215.9375 C 429.855469 216.355469 436.347656 216.625 443.234375 216.746094 C 443.378906 216.546875 443.53125 216.351563 443.691406 216.15625 C 447.0625 212.023438 451.953125 212.171875 452.019531 216.8125 C 466.519531 216.789063 481.277344 216.117188 489.429688 214.746094 C 506.78125 211.824219 504.847656 220.433594 494.132813 222.246094 C 482.738281 224.171875 464.835938 225.714844 449.601563 226.4375 C 446.425781 240.714844 448.054688 258.570313 446.019531 274.296875 C 443.8125 291.382813 433.503906 288.515625 435.300781 277.792969 Z M 379.699219 228.464844 C 380.910156 216.355469 392.433594 215.007813 389.96875 229.8125 C 386.855469 248.492188 388.632813 266.519531 390.902344 283.890625 C 402.335938 284.171875 412.203125 281.96875 421.484375 278.421875 C 430.058594 275.140625 434.578125 276.777344 426.203125 283.890625 C 414.402344 293.925781 398.273438 293.507813 383.257813 294.535156 C 380.429688 294.730469 379.933594 294.078125 379.699219 290.039063 C 378.515625 269.601563 377.632813 249.089844 379.699219 228.464844 Z M 481.800781 274.585938 C 482.664063 272.339844 483.398438 270.011719 484.21875 267.726563 C 475.554688 268.425781 478.03125 258.449219 484.242188 257.449219 C 486.289063 257.121094 488.347656 256.785156 490.398438 256.449219 C 499.300781 243.617188 504.902344 228.273438 511.949219 214.148438 C 517.011719 204.15625 520.140625 209.652344 522.269531 214.148438 C 526.90625 226.589844 528.863281 237.84375 533.066406 250.007813 L 533.28125 250.621094 C 534.257813 250.546875 535.234375 250.480469 536.210938 250.417969 C 545.179688 249.847656 549.988281 259.882813 537.554688 260.867188 C 540.382813 267.152344 543.328125 273.566406 544.8125 280.558594 C 546.972656 290.714844 538.804688 290.679688 535.851563 280.558594 C 533.964844 274.089844 531.632813 267.773438 529.105469 261.527344 C 517.027344 262.457031 506.796875 263.253906 495.359375 264.722656 C 492.335938 270.339844 490.429688 274.820313 490.898438 276.894531 C 494.410156 292.429688 474.664063 293.136719 481.800781 274.585938 Z M 524.859375 251.40625 C 521.78125 244.253906 518.617188 237.128906 515.746094 229.902344 C 511.964844 237.0625 506.164063 246.261719 501.121094 254.703125 C 509.015625 253.441406 516.921875 252.265625 524.859375 251.40625 Z M 307.164063 274.585938 C 308.03125 272.339844 308.765625 270.011719 309.585938 267.726563 C 300.921875 268.425781 303.398438 258.449219 309.613281 257.449219 C 311.664063 257.121094 313.714844 256.785156 315.765625 256.449219 C 324.664063 243.617188 330.269531 228.273438 337.316406 214.148438 C 342.382813 204.15625 345.507813 209.652344 347.636719 214.148438 C 352.277344 226.589844 354.230469 237.84375 358.433594 250.007813 L 358.648438 250.621094 C 359.621094 250.546875 360.601563 250.480469 361.578125 250.417969 C 370.546875 249.847656 375.355469 259.882813 362.921875 260.867188 C 365.746094 267.152344 368.695313 273.566406 370.183594 280.558594 C 372.339844 290.714844 364.171875 290.679688 361.21875 280.558594 C 359.328125 274.089844 356.996094 267.773438 354.472656 261.527344 C 342.394531 262.457031 332.164063 263.253906 320.726563 264.722656 C 317.703125 270.339844 315.796875 274.820313 316.265625 276.894531 C 319.777344 292.429688 300.03125 293.136719 307.164063 274.585938 Z M 350.226563 251.40625 C 347.148438 244.253906 343.988281 237.128906 341.121094 229.902344 C 337.328125 237.0625 331.539063 246.261719 326.488281 254.703125 C 334.382813 253.441406 342.289063 252.265625 350.226563 251.40625 Z M 350.226563 251.40625 "/>
</g>
</svg>
